<?xml version="1.0" encoding="utf-8"?>
<!-- Svg Vector Icons : http://www.sfont.cn -->
<!DOCTYPE svg PUBLIC "-//W3C//DTD SVG 1.1//EN" "http://www.w3.org/Graphics/SVG/1.1/DTD/svg11.dtd">
<svg version="1.1" xmlns="http://www.w3.org/2000/svg" xmlns:xlink="http://www.w3.org/1999/xlink" x="0px" y="0px" viewBox="0 0 1000 1000" enable-background="new 0 0 1000 1000" xml:space="preserve">
<metadata> Svg Vector Icons : http://www.sfont.cn </metadata>
<g><path d="M643.8,166.5C678,125,701,67.4,694.7,10c-49.2,2-108.8,32.8-144,74.2c-31.7,36.7-59.4,95.3-52,151.6C553.6,240.1,609.6,207.9,643.8,166.5 M767,530.7c-1.2-124.1,101-183.6,105.6-186.6c-57.4-84.2-146.9-95.8-178.8-97.1c-76.2-7.7-148.6,44.9-187.2,44.9c-38.5,0-98.2-43.8-161.4-42.6c-83,1.2-159.6,48.3-202.3,122.9c-86.2,149.9-22.1,372.1,62,493.8c41.1,59.6,90,126.4,154.4,124c61.9-2.4,85.4-40.1,160.2-40.1c74.9,0,95.9,40.1,161.5,38.9c66.6-1.2,108.9-60.7,149.7-120.4c47.2-69.1,66.6-136,67.7-139.4C896.7,728.3,768.2,679,767,530.7"/></g>
</svg>