<?xml version="1.0" encoding="utf-8"?>
<!-- Svg Vector Icons : http://www.sfont.cn -->
<!DOCTYPE svg PUBLIC "-//W3C//DTD SVG 1.1//EN" "http://www.w3.org/Graphics/SVG/1.1/DTD/svg11.dtd">
<svg version="1.1" xmlns="http://www.w3.org/2000/svg" xmlns:xlink="http://www.w3.org/1999/xlink" x="0px" y="0px" viewBox="0 0 1000 1000" enable-background="new 0 0 1000 1000" xml:space="preserve">
<metadata> Svg Vector Icons : http://www.sfont.cn </metadata>
<g><path d="M822.7,990H177.3c-26.1,0-47.4-21.3-47.4-47.4V316.2c0-26.1,21.3-47.4,47.4-47.4h645.4c26.1,0,47.4,21.3,47.4,47.4v626.4C870.1,968.7,848.8,990,822.7,990z M177.3,315.8l-0.4,626.8l645.8,0.4c0.2,0,0.4-0.2,0.4-0.4V316.2L177.3,315.8z"/><path d="M257.3,295.1l-47.6-4.6C225.1,130.6,351.9,10,504.7,10c148,0,274.4,116.3,293.9,270.6l-47.4,6C734.7,156.2,628.7,57.8,504.7,57.8C376.6,57.8,270.3,159.8,257.3,295.1z"/></g>
</svg>