<?xml version="1.0" encoding="utf-8"?>
<!-- Svg Vector Icons : http://www.sfont.cn -->
<!DOCTYPE svg PUBLIC "-//W3C//DTD SVG 1.1//EN" "http://www.w3.org/Graphics/SVG/1.1/DTD/svg11.dtd">
<svg version="1.1" xmlns="http://www.w3.org/2000/svg" xmlns:xlink="http://www.w3.org/1999/xlink" x="0px" y="0px" viewBox="0 0 1000 1000" enable-background="new 0 0 1000 1000" xml:space="preserve">
<metadata> Svg Vector Icons : http://www.sfont.cn </metadata>
<g><g transform="translate(0.000000,511.000000) scale(0.100000,-0.100000)"><path d="M3364.8,4991.6c-1188.1-135.3-2229.2-852.9-2754.7-1899.8c-249-498-360.7-978.4-362.7-1556.8c-2-1199.9,576.4-2284.1,1574.4-2950.8c192.2-129.4,576.4-313.7,815.6-392.1c827.4-270.6,1780.3-209.8,2584.1,164.7c205.9,96.1,454.9,243.1,613.7,362.7l105.9,80.4L7737-2996C9464.4-4723.3,9533-4790,9603.6-4790c54.9,0,82.4,11.8,111.8,51c90.2,113.7,172.5,21.6-1752.8,1948.9l-1794,1794l90.2,88.2c427.5,417.6,764.7,1058.7,901.9,1713.6c60.8,298,82.3,768.6,49,1070.5c-192.1,1664.6-1450.9,2937-3084.1,3115.4C3907.9,5017.1,3580.5,5015.1,3364.8,4991.6z M4027.5,4699.5c539.2-56.9,1027.4-233.3,1494-543.1c290.2-194.1,680.3-576.4,860.7-849c243.1-364.7,401.9-743.1,494.1-1176.4c58.8-274.5,64.7-874.5,11.8-1147C6613.6-415.8,5560.7-1445.2,4190.3-1653c-184.3-27.4-672.5-27.4-864.7,0c-741.1,105.9-1403.8,449-1927.3,998c-398,419.6-674.5,949-801.9,1539.1c-58.8,270.6-64.7,927.4-9.8,1197.9c174.5,860.7,674.5,1621.5,1376.4,2092C2578.6,4587.7,3313.9,4774,4027.5,4699.5z"/></g></g>
</svg>