<?xml version="1.0" standalone="no"?><!DOCTYPE svg PUBLIC "-//W3C//DTD SVG 1.1//EN" "http://www.w3.org/Graphics/SVG/1.1/DTD/svg11.dtd"><svg t="1543286562270" class="icon" style="" viewBox="0 0 1024 1024" version="1.1" xmlns="http://www.w3.org/2000/svg" p-id="1944" xmlns:xlink="http://www.w3.org/1999/xlink" width="200" height="200"><defs><style type="text/css"></style></defs><path d="M512 479.999906c-54.201989 0-98.133981-42.975992-98.133981-95.999981 0-53.02399 43.931991-95.999981 98.133981-95.999981s98.133981 42.975992 98.133981 95.999981C610.133981 437.023915 566.201989 479.999906 512 479.999906L512 479.999906zM512 223.999956c-90.314982 0-163.555968 71.615986-163.555968 159.999969S421.685018 543.999894 512 543.999894s163.555968-71.615986 163.555968-159.999969S602.314982 223.999956 512 223.999956L512 223.999956zM512 927.999819c-54.397989 0.288-327.110936-410.20792-327.110936-543.999894 0-176.703965 146.447971-319.999938 327.110936-319.999938s327.110936 143.295972 327.110936 319.999938C839.110936 515.999899 565.54799 928.287819 512 927.999819L512 927.999819zM512 0C295.224042 0 119.467077 171.935966 119.467077 383.999925c0 160.575969 327.273936 640.351875 392.532923 639.999875 64.243987 0.352 392.532923-481.600906 392.532923-639.999875C904.532923 171.935966 728.775958 0 512 0L512 0z" p-id="1945"></path></svg>