<?xml version="1.0" standalone="no"?><!DOCTYPE svg PUBLIC "-//W3C//DTD SVG 1.1//EN" "http://www.w3.org/Graphics/SVG/1.1/DTD/svg11.dtd"><svg t="1543472812786" class="icon" style="" viewBox="0 0 1024 1024" version="1.1" xmlns="http://www.w3.org/2000/svg" p-id="1764" xmlns:xlink="http://www.w3.org/1999/xlink" width="200" height="200"><defs><style type="text/css"></style></defs><path d="M810.3 407.4v-87.1C810.3 155.6 676.8 22 512 22S213.7 155.5 213.7 320.3v87.1c-60.4 10.2-106.5 62.6-106.5 125.9v340.9c0 70.6 57.2 127.8 127.8 127.8h553.9c70.6 0 127.8-57.2 127.8-127.8V533.3c0.1-63.3-46-115.7-106.4-125.9zM512 86c129.2 0 234.3 105.1 234.3 234.3v85.2H277.6v-85.2C277.7 191.1 382.8 86 512 86z m340.9 788.2c0 35.2-28.7 63.9-63.9 63.9H235.1c-35.2 0-63.9-28.7-63.9-63.9V533.3c0-35.2 28.7-63.9 63.9-63.9H789c35.2 0 63.9 28.7 63.9 63.9v340.9z" p-id="1765" fill="#fafafa"></path></svg>