<?xml version="1.0" standalone="no"?><!DOCTYPE svg PUBLIC "-//W3C//DTD SVG 1.1//EN" "http://www.w3.org/Graphics/SVG/1.1/DTD/svg11.dtd"><svg t="1543297824913" class="icon" style="" viewBox="0 0 1024 1024" version="1.1" xmlns="http://www.w3.org/2000/svg" p-id="7134" xmlns:xlink="http://www.w3.org/1999/xlink" width="200" height="200"><defs><style type="text/css"></style></defs><path d="M293.638187 424.789333a30.421333 30.421333 0 0 1-23.594667-9.088 31.573333 31.573333 0 0 1-8.96-24.021333V246.016C263.088853 111.530667 369.75552 2.986667 501.894187 0.981333h19.541333c132.181333 2.005333 238.848 110.506667 240.810667 245.034667a32.853333 32.853333 0 0 1-32.512 33.109333 32.853333 32.853333 0 0 1-32.554667-33.109333 179.669333 179.669333 0 0 0-51.285333-126.677333 173.482667 173.482667 0 0 0-124.458667-52.138667h-19.541333a173.482667 173.482667 0 0 0-124.458667 52.138667 179.669333 179.669333 0 0 0-51.242667 126.677333V391.68a31.573333 31.573333 0 0 1-8.96 24.021333 30.464 30.464 0 0 1-23.594666 9.088z" p-id="7135"></path><path d="M775.25952 994.346667H248.070187a159.744 159.744 0 0 1-115.541334-48.042667A165.418667 165.418667 0 0 1 85.33952 828.757333v-304.64A165.461333 165.461333 0 0 1 132.528853 406.613333a159.744 159.744 0 0 1 115.541334-48.042666H775.25952a159.744 159.744 0 0 1 115.541333 48.042666 165.461333 165.461333 0 0 1 47.189334 117.546667v304.64a165.418667 165.418667 0 0 1-47.189334 117.504 159.744 159.744 0 0 1-115.541333 48.042667zM248.070187 424.789333c-53.333333 1.322667-96.341333 45.056-97.621334 99.370667v304.64c1.28 54.272 44.245333 98.005333 97.621334 99.328H775.25952c53.376-1.322667 96.341333-45.056 97.664-99.370667v-304.64c-1.28-54.272-44.288-98.005333-97.664-99.328H248.070187z" p-id="7136"></path><path d="M535.64352 671.317333v120.32c-0.981333 17.834667-13.141333 32-28.373333 33.194667a24.746667 24.746667 0 0 1-20.608-9.130667 34.389333 34.389333 0 0 1-7.808-24.021333v-120.362667a91.562667 91.562667 0 0 1-14.250667-5.76c-26.410667-13.354667-42.666667-37.973333-42.666667-64.682666 0-26.666667 16.256-51.328 42.666667-64.64a96 96 0 0 1 85.333333 0c26.410667 13.312 42.666667 37.973333 42.666667 64.64 0 26.666667-16.256 51.328-42.666667 64.682666-4.608 2.304-9.386667 4.266667-14.293333 5.76z" p-id="7137"></path></svg>