<?xml version="1.0" standalone="no"?><!DOCTYPE svg PUBLIC "-//W3C//DTD SVG 1.1//EN" "http://www.w3.org/Graphics/SVG/1.1/DTD/svg11.dtd"><svg t="1543243043169" class="icon" style="" viewBox="0 0 1024 1024" version="1.1" xmlns="http://www.w3.org/2000/svg" p-id="2687" xmlns:xlink="http://www.w3.org/1999/xlink" width="200" height="200"><defs><style type="text/css"></style></defs><path d="M249.563429 436.297143v-5.485714c8.594286 0 18.285714-3.949714 23.917714-9.618286a33.536 33.536 0 0 0 9.508571-24.137143c0-8.667429-3.876571-18.468571-9.508571-24.137143a32.914286 32.914286 0 0 0-23.917714-9.618286c-8.557714 0-18.285714 3.913143-23.917715 9.581715a33.536 33.536 0 0 0-9.508571 24.137143c0 8.704 3.876571 18.505143 9.216 23.881142 7.204571 6.217143 16.018286 9.874286 24.210286 9.874286v5.485714z" p-id="2688"></path><path d="M885.686857 297.910857l-2.925714 4.608a50.176 50.176 0 0 0-27.611429-7.241143c-10.825143 0-21.211429 2.413714-31.341714 7.533715l-163.803429 79.981714v-35.474286c0-47.177143-37.741714-85.211429-84.516571-85.211428H200.192a84.699429 84.699429 0 0 0-84.516571 85.211428v327.899429c0 47.177143 37.741714 85.211429 84.516571 85.211428h375.296c46.811429 0 84.516571-38.034286 84.516571-85.211428v-35.474286l7.899429 3.84 155.977143 76.141714c10.093714 5.12 20.443429 7.497143 31.268571 7.497143 10.459429 0 19.126857-2.267429 27.574857-7.204571 16.164571-10.386286 25.6-29.769143 25.6-53.686857V356.205714c0-23.917714-9.435429-43.337143-25.6-53.686857l2.962286-4.608z m-13.677714 58.294857h5.485714v310.125715c0 12.507429-4.022857 23.04-11.264 27.209142a18.980571 18.980571 0 0 1-11.081143 3.364572c-5.412571 0-11.556571-1.609143-18.505143-4.608l-173.568-85.833143-3.072-4.937143v-181.394286l3.108572-4.900571 173.787428-84.297143c6.692571-2.925714 12.836571-4.498286 18.249143-4.498286 4.754286 0 9.179429 1.28 10.24 2.852572 8.045714 3.510857 12.105143 13.568 12.105143 26.916571h-5.485714zM151.990857 347.282286h-5.485714c0-29.732571 24.137143-54.052571 53.686857-54.052572h375.296c29.549714 0 53.686857 24.32 53.686857 54.052572v327.936c0 29.769143-24.137143 54.089143-53.686857 54.089143H200.192a54.016 54.016 0 0 1-53.686857-54.089143V347.282286h5.485714z" p-id="2689"></path></svg>