<?xml version="1.0" standalone="no"?><!DOCTYPE svg PUBLIC "-//W3C//DTD SVG 1.1//EN" "http://www.w3.org/Graphics/SVG/1.1/DTD/svg11.dtd"><svg t="1543050275143" class="icon" style="" viewBox="0 0 1024 1024" version="1.1" xmlns="http://www.w3.org/2000/svg" p-id="2685" xmlns:xlink="http://www.w3.org/1999/xlink" width="200" height="200"><defs><style type="text/css"></style></defs><path d="M375.466667 367.445333a30.890667 30.890667 0 1 1-58.026667 3.925334c4.266667-11.605333 12.970667-13.312 22.016-19.968 18.944-0.512 29.866667 4.266667 36.010667 16.042666z m192 138.069334l-10.922667 3.072c-6.485333 3.925333-19.285333 19.626667-10.922667 31.061333a25.941333 25.941333 0 0 0 34.133334 15.018667c7.509333-3.072 9.898667-9.557333 15.018666-15.018667 1.536-21.162667-6.656-33.28-27.306666-34.133333zM1024 512A512 512 0 1 1 512 0a512 512 0 0 1 512 512z m-585.557333 115.370667a140.970667 140.970667 0 0 0-4.949334-20.992 138.922667 138.922667 0 0 1 2.048-57.002667c18.090667-65.024 64.170667-99.498667 124.928-122.026667a185.173333 185.173333 0 0 1 81.066667-10.922666 129.706667 129.706667 0 0 0-31.914667-70.997334 221.866667 221.866667 0 0 0-117.930666-76.970666c-10.069333-3.242667-19.114667-2.389333-30.037334-4.949334a217.258667 217.258667 0 0 0-75.946666-1.024 359.424 359.424 0 0 0-53.930667 13.994667 205.653333 205.653333 0 0 0-119.466667 112.981333 165.546667 165.546667 0 0 0-3.925333 95.914667 181.248 181.248 0 0 0 82.944 104.96 223.744 223.744 0 0 1-11.946667 37.034667 102.4 102.4 0 0 1-9.045333 27.989333v2.048c19.114667-9.216 38.058667-18.090667 57.002667-27.989333a136.533333 136.533333 0 0 1 20.992-11.946667 84.309333 84.309333 0 0 1 25.941333 5.973333 285.354667 285.354667 0 0 0 64.170667 3.925334z m360.96-114.005334c-34.133333-56.32-92.842667-85.333333-186.026667-83.968-4.096 2.56-10.752 0-16.042667 2.048-8.192 2.048-17.066667 3.242667-25.941333 5.973334a237.056 237.056 0 0 0-69.973333 37.034666 141.994667 141.994667 0 0 0-43.008 162.986667 173.909333 173.909333 0 0 0 73.045333 76.970667 237.056 237.056 0 0 0 64 22.016l13.994667 1.024a106.837333 106.837333 0 0 0 39.082666 2.048c11.434667-2.389333 23.893333-1.877333 34.986667-4.949334 3.242667-0.853333 9.898667-4.949333 13.994667-3.925333a102.4 102.4 0 0 1 18.944 10.922667 266.752 266.752 0 0 1 46.08 23.04h1.024a140.629333 140.629333 0 0 0-8.021334-24.064 119.466667 119.466667 0 0 0-9.045333-29.013334c1.024-5.973333 24.576-21.845333 30.037333-25.941333a160.768 160.768 0 0 0 39.082667-62.976 135.168 135.168 0 0 0-16.213333-109.226667zM510.464 409.6c32.938667-11.946667 26.794667-59.221333-17.066667-58.026667-9.728 6.485333-19.456 8.533333-23.04 20.992A31.573333 31.573333 0 0 0 510.464 409.6z m186.026667 96.085333c-6.144 3.754667-13.824 3.413333-17.92 9.045334a27.989333 27.989333 0 0 0 4.096 36.693333c22.016 14.677333 41.813333-3.413333 40.96-27.989333-8.192-9.728-8.192-17.408-27.136-17.92z" fill="#07BD13" p-id="2686"></path></svg>